<svg width="234" height="121" viewBox="0 0 234 121" fill="none" xmlns="http://www.w3.org/2000/svg">
<path d="M6.672 106V72.592H20.64C22.976 72.592 24.992 73.024 26.688 73.888C28.64 74.88 30.192 76.304 31.344 78.16C32.496 79.984 33.072 82 33.072 84.208C33.072 86.416 32.496 88.448 31.344 90.304C30.224 92.16 28.688 93.584 26.736 94.576C25.072 95.44 23.04 95.872 20.64 95.872H15.408V106H6.672ZM60.5393 73.696C62.4593 74.592 63.9633 75.92 65.0513 77.68C66.1713 79.44 66.7313 81.392 66.7313 83.536C66.7313 86.032 65.9633 88.272 64.4273 90.256C62.9233 92.208 60.9873 93.504 58.6193 94.144L67.1153 106H65.0033L56.7953 94.48L55.2593 94.528H43.2113V106H41.4353V72.592H54.1553C55.5633 72.592 56.7633 72.688 57.7553 72.88C58.7793 73.04 59.7073 73.312 60.5393 73.696ZM55.7393 92.752C57.4033 92.752 58.9393 92.336 60.3473 91.504C61.7553 90.672 62.8753 89.552 63.7073 88.144C64.5393 86.736 64.9553 85.2 64.9553 83.536C64.9553 81.68 64.4593 80 63.4673 78.496C62.5073 76.992 61.1633 75.872 59.4353 75.136C58.1873 74.624 56.4273 74.368 54.1553 74.368H43.2113V92.752H55.7393ZM88.8225 71.872C91.3185 71.872 93.6225 72.496 95.7345 73.744C97.8465 74.96 99.5105 76.624 100.727 78.736C101.975 80.848 102.599 83.152 102.599 85.648V92.944C102.599 95.44 101.975 97.744 100.727 99.856C99.5105 101.968 97.8465 103.648 95.7345 104.896C93.6225 106.112 91.3185 106.72 88.8225 106.72C86.3265 106.72 84.0225 106.112 81.9105 104.896C79.7985 103.648 78.1185 101.968 76.8705 99.856C75.6545 97.744 75.0465 95.44 75.0465 92.944V85.648C75.0465 83.152 75.6545 80.848 76.8705 78.736C78.1185 76.624 79.7985 74.96 81.9105 73.744C84.0225 72.496 86.3265 71.872 88.8225 71.872ZM76.8225 92.944C76.8225 95.12 77.3505 97.136 78.4065 98.992C79.4945 100.816 80.9505 102.272 82.7745 103.36C84.6305 104.416 86.6465 104.944 88.8225 104.944C90.9985 104.944 92.9985 104.416 94.8225 103.36C96.6785 102.272 98.1345 100.816 99.1905 98.992C100.279 97.136 100.823 95.12 100.823 92.944V85.648C100.823 83.472 100.279 81.472 99.1905 79.648C98.1345 77.792 96.6785 76.336 94.8225 75.28C92.9985 74.192 90.9985 73.648 88.8225 73.648C86.6465 73.648 84.6305 74.192 82.7745 75.28C80.9505 76.336 79.4945 77.792 78.4065 79.648C77.3505 81.472 76.8225 83.472 76.8225 85.648V92.944ZM115.042 106H113.266V72.592H126.706C128.946 72.592 131.01 73.072 132.898 74.032C134.818 74.992 136.338 76.352 137.458 78.112C138.578 79.872 139.138 81.904 139.138 84.208C139.138 86.416 138.562 88.448 137.41 90.304C136.29 92.16 134.754 93.584 132.802 94.576C131.106 95.44 129.074 95.872 126.706 95.872H115.042V106ZM115.042 94.096H126.706C128.754 94.096 130.434 93.776 131.746 93.136C133.442 92.336 134.802 91.136 135.826 89.536C136.85 87.936 137.362 86.16 137.362 84.208C137.362 82.288 136.85 80.528 135.826 78.928C134.802 77.328 133.426 76.128 131.698 75.328C130.386 74.688 128.722 74.368 126.706 74.368H115.042V94.096ZM158.973 72.592H160.845L174.573 106H172.653L168.141 94.96H151.677L147.117 106H145.245L158.973 72.592ZM152.397 93.232H167.421L159.885 74.896L152.397 93.232ZM202.664 73.696C204.584 74.592 206.088 75.92 207.176 77.68C208.296 79.44 208.856 81.392 208.856 83.536C208.856 86.032 208.088 88.272 206.552 90.256C205.048 92.208 203.112 93.504 200.744 94.144L209.24 106H207.128L198.92 94.48L197.384 94.528H185.336V106H183.56V72.592H196.28C197.688 72.592 198.888 72.688 199.88 72.88C200.904 73.04 201.832 73.312 202.664 73.696ZM197.864 92.752C199.528 92.752 201.064 92.336 202.472 91.504C203.88 90.672 205 89.552 205.832 88.144C206.664 86.736 207.08 85.2 207.08 83.536C207.08 81.68 206.584 80 205.592 78.496C204.632 76.992 203.288 75.872 201.56 75.136C200.312 74.624 198.552 74.368 196.28 74.368H185.336V92.752H197.864Z" fill="white"/>
<path d="M111.308 43.35C111.895 43.3075 112.398 43.1061 112.815 42.7457C113.23 42.3836 113.437 41.9475 113.437 41.4375C113.437 40.8425 113.217 40.3648 112.777 40.0044C112.336 39.6423 111.773 39.4825 111.087 39.525C109.08 39.6525 106.951 39.1748 104.698 38.0919C102.446 37.0073 101.027 35.0412 100.439 32.1937C100.341 31.7262 100.084 31.3437 99.6665 31.0462C99.2513 30.7487 98.7745 30.6 98.2359 30.6C97.5505 30.6 96.9875 30.8227 96.5469 31.2681C96.1062 31.7152 95.9594 32.2362 96.1062 32.8312C96.9385 36.6987 98.8969 39.4612 101.981 41.1187C105.066 42.7762 108.174 43.52 111.308 43.35ZM110.5 51C103.793 51 98.1997 49.0025 93.721 45.0075C89.2403 41.0125 87 36.04 87 30.09C87 25.84 88.9466 21.2185 92.8397 16.2256C96.731 11.231 102.618 5.8225 110.5 0C118.382 5.8225 124.27 11.231 128.163 16.2256C132.054 21.2185 134 25.84 134 30.09C134 36.04 131.76 41.0125 127.279 45.0075C122.8 49.0025 117.207 51 110.5 51Z" fill="white"/>
</svg>
