<svg width="234" height="108" viewBox="0 0 234 108" fill="none" xmlns="http://www.w3.org/2000/svg">
<path d="M6.672 94V60.592H20.64C22.976 60.592 24.992 61.024 26.688 61.888C28.64 62.88 30.192 64.304 31.344 66.16C32.496 67.984 33.072 70 33.072 72.208C33.072 74.416 32.496 76.448 31.344 78.304C30.224 80.16 28.688 81.584 26.736 82.576C25.072 83.44 23.04 83.872 20.64 83.872H15.408V94H6.672ZM60.5393 61.696C62.4593 62.592 63.9633 63.92 65.0513 65.68C66.1713 67.44 66.7313 69.392 66.7313 71.536C66.7313 74.032 65.9633 76.272 64.4273 78.256C62.9233 80.208 60.9873 81.504 58.6193 82.144L67.1153 94H65.0033L56.7953 82.48L55.2593 82.528H43.2113V94H41.4353V60.592H54.1553C55.5633 60.592 56.7633 60.688 57.7553 60.88C58.7793 61.04 59.7073 61.312 60.5393 61.696ZM55.7393 80.752C57.4033 80.752 58.9393 80.336 60.3473 79.504C61.7553 78.672 62.8753 77.552 63.7073 76.144C64.5393 74.736 64.9553 73.2 64.9553 71.536C64.9553 69.68 64.4593 68 63.4673 66.496C62.5073 64.992 61.1633 63.872 59.4353 63.136C58.1873 62.624 56.4273 62.368 54.1553 62.368H43.2113V80.752H55.7393ZM88.8225 59.872C91.3185 59.872 93.6225 60.496 95.7345 61.744C97.8465 62.96 99.5105 64.624 100.727 66.736C101.975 68.848 102.599 71.152 102.599 73.648V80.944C102.599 83.44 101.975 85.744 100.727 87.856C99.5105 89.968 97.8465 91.648 95.7345 92.896C93.6225 94.112 91.3185 94.72 88.8225 94.72C86.3265 94.72 84.0225 94.112 81.9105 92.896C79.7985 91.648 78.1185 89.968 76.8705 87.856C75.6545 85.744 75.0465 83.44 75.0465 80.944V73.648C75.0465 71.152 75.6545 68.848 76.8705 66.736C78.1185 64.624 79.7985 62.96 81.9105 61.744C84.0225 60.496 86.3265 59.872 88.8225 59.872ZM76.8225 80.944C76.8225 83.12 77.3505 85.136 78.4065 86.992C79.4945 88.816 80.9505 90.272 82.7745 91.36C84.6305 92.416 86.6465 92.944 88.8225 92.944C90.9985 92.944 92.9985 92.416 94.8225 91.36C96.6785 90.272 98.1345 88.816 99.1905 86.992C100.279 85.136 100.823 83.12 100.823 80.944V73.648C100.823 71.472 100.279 69.472 99.1905 67.648C98.1345 65.792 96.6785 64.336 94.8225 63.28C92.9985 62.192 90.9985 61.648 88.8225 61.648C86.6465 61.648 84.6305 62.192 82.7745 63.28C80.9505 64.336 79.4945 65.792 78.4065 67.648C77.3505 69.472 76.8225 71.472 76.8225 73.648V80.944ZM115.042 94H113.266V60.592H126.706C128.946 60.592 131.01 61.072 132.898 62.032C134.818 62.992 136.338 64.352 137.458 66.112C138.578 67.872 139.138 69.904 139.138 72.208C139.138 74.416 138.562 76.448 137.41 78.304C136.29 80.16 134.754 81.584 132.802 82.576C131.106 83.44 129.074 83.872 126.706 83.872H115.042V94ZM115.042 82.096H126.706C128.754 82.096 130.434 81.776 131.746 81.136C133.442 80.336 134.802 79.136 135.826 77.536C136.85 75.936 137.362 74.16 137.362 72.208C137.362 70.288 136.85 68.528 135.826 66.928C134.802 65.328 133.426 64.128 131.698 63.328C130.386 62.688 128.722 62.368 126.706 62.368H115.042V82.096ZM158.973 60.592H160.845L174.573 94H172.653L168.141 82.96H151.677L147.117 94H145.245L158.973 60.592ZM152.397 81.232H167.421L159.885 62.896L152.397 81.232ZM202.664 61.696C204.584 62.592 206.088 63.92 207.176 65.68C208.296 67.44 208.856 69.392 208.856 71.536C208.856 74.032 208.088 76.272 206.552 78.256C205.048 80.208 203.112 81.504 200.744 82.144L209.24 94H207.128L198.92 82.48L197.384 82.528H185.336V94H183.56V60.592H196.28C197.688 60.592 198.888 60.688 199.88 60.88C200.904 61.04 201.832 61.312 202.664 61.696ZM197.864 80.752C199.528 80.752 201.064 80.336 202.472 79.504C203.88 78.672 205 77.552 205.832 76.144C206.664 74.736 207.08 73.2 207.08 71.536C207.08 69.68 206.584 68 205.592 66.496C204.632 64.992 203.288 63.872 201.56 63.136C200.312 62.624 198.552 62.368 196.28 62.368H185.336V80.752H197.864Z" fill="white"/>
<path d="M103.308 25.2057C103.895 25.181 104.398 25.0639 104.815 24.8543C105.23 24.6438 105.438 24.3902 105.438 24.0937C105.438 23.7477 105.217 23.47 104.777 23.2604C104.336 23.0499 103.773 22.957 103.087 22.9817C101.08 23.0558 98.9505 22.778 96.6984 22.1484C94.4464 21.5178 93.0266 20.3746 92.4391 18.7189C92.3411 18.4471 92.0836 18.2247 91.6665 18.0517C91.2513 17.8787 90.7745 17.7923 90.2359 17.7923C89.5505 17.7923 88.9875 17.9217 88.5469 18.1807C88.1062 18.4407 87.9594 18.7437 88.1062 19.0896C88.9385 21.3384 90.8969 22.9446 93.9813 23.9083C97.0656 24.8721 100.174 25.3045 103.308 25.2057ZM102.5 29.6538C95.7927 29.6538 90.1997 28.4923 85.721 26.1694C81.2403 23.8466 79 20.9553 79 17.4957C79 15.0246 80.9466 12.3374 84.8397 9.43435C88.731 6.53025 94.6177 3.38547 102.5 0C110.382 3.38547 116.27 6.53025 120.163 9.43435C124.054 12.3374 126 15.0246 126 17.4957C126 20.9553 123.76 23.8466 119.279 26.1694C114.8 28.4923 109.207 29.6538 102.5 29.6538Z" fill="white"/>
</svg>
