<svg width="47" height="18" viewBox="0 0 47 18" fill="none" xmlns="http://www.w3.org/2000/svg">
<g clip-path="url(#clip0_121_2)">
<path d="M45.536 11.0006L46.8399 12.0151C46.4167 12.7426 45.4046 13.9908 43.6546 13.9908C41.4816 13.9908 39.8633 12.0285 39.8633 9.53221C39.8633 6.87581 41.4988 5.07367 43.4717 5.07367C45.456 5.07367 46.4281 6.91578 46.7427 7.91028L46.9143 8.4176L41.8019 10.8871C42.1908 11.7816 42.797 12.2354 43.6546 12.2354C44.5125 12.2354 45.1071 11.7415 45.536 11.0006V11.0006ZM41.5274 9.39217L44.9414 7.73681C44.7526 7.18288 44.1923 6.78913 43.5231 6.78913C42.6711 6.78913 41.4874 7.67017 41.5274 9.39217Z" fill="#FF302F"/>
<path d="M37.3987 0.528305H39.0455V13.5837H37.3987V0.528198V0.528305Z" fill="#20B15A"/>
<path d="M34.8025 5.4207H36.3922V13.35C36.3922 16.6405 34.7281 17.9954 32.7609 17.9954C30.9082 17.9954 29.7931 16.5404 29.3757 15.3591L30.8338 14.6515C31.0968 15.379 31.7316 16.2401 32.7609 16.2401C34.0247 16.2401 34.8025 15.3256 34.8025 13.617V12.9763H34.7453C34.3678 13.5102 33.6473 13.9907 32.7324 13.9907C30.8224 13.9907 29.0724 12.0484 29.0724 9.54559C29.0724 7.02923 30.8224 5.06702 32.7324 5.06702C33.6416 5.06702 34.3678 5.54091 34.7453 6.06152H34.8025V5.4208V5.4207ZM34.9168 9.54559C34.9168 7.97037 34.019 6.82234 32.8753 6.82234C31.7201 6.82234 30.748 7.97037 30.748 9.54559C30.748 11.1007 31.7201 12.2287 32.8753 12.2287C34.0191 12.2354 34.9169 11.1007 34.9169 9.54559H34.9168Z" fill="#3686F7"/>
<path d="M20.0315 9.51211C20.0315 12.0818 18.316 13.9707 16.2116 13.9707C14.1073 13.9707 12.3917 12.0752 12.3917 9.51211C12.3917 6.92911 14.1073 5.04694 16.2116 5.04694C18.316 5.04694 20.0315 6.92911 20.0315 9.51211ZM18.3618 9.51211C18.3618 7.91033 17.3667 6.8089 16.2116 6.8089C15.0565 6.8089 14.0614 7.91033 14.0614 9.51211C14.0614 11.1006 15.0565 12.2153 16.2116 12.2153C17.3668 12.2153 18.3618 11.1006 18.3618 9.51211Z" fill="#FF302F"/>
<path d="M28.3749 9.53221C28.3749 12.1019 26.6593 13.9907 24.5549 13.9907C22.4505 13.9907 20.735 12.1018 20.735 9.53221C20.735 6.94921 22.4505 5.07367 24.5549 5.07367C26.6593 5.07367 28.3749 6.94256 28.3749 9.53221V9.53221ZM26.6993 9.53221C26.6993 7.93042 25.7043 6.82899 24.5491 6.82899C23.3941 6.82899 22.399 7.93042 22.399 9.53221C22.399 11.1207 23.3941 12.2354 24.5491 12.2354C25.71 12.2354 26.6993 11.1141 26.6993 9.53221Z" fill="#FFBA40"/>
<path d="M6.11275 12.0351C3.71667 12.0351 1.84108 9.77915 1.84108 6.98251C1.84108 4.18597 3.71667 1.92997 6.11275 1.92997C7.40516 1.92997 8.34865 2.52397 9.04631 3.2849L10.1958 1.94336C9.22366 0.855435 7.92556 0.0276489 6.11275 0.0276489C2.83037 0.0277561 0.0682983 3.15151 0.0682983 6.98251C0.0682983 10.8137 2.83037 13.9374 6.11275 13.9374C7.88554 13.9374 9.22366 13.2566 10.2701 11.9884C11.3452 10.7336 11.6768 8.97151 11.6768 7.54318C11.6768 7.09597 11.6311 6.63547 11.5796 6.29508H6.11275V8.15058H10.0071C9.89268 9.31201 9.57818 10.1063 9.11497 10.6468C8.55455 11.3076 7.66825 12.0351 6.11275 12.0351V12.0351Z" fill="#3686F7"/>
</g>
<defs>
<clipPath id="clip0_121_2">
<rect width="47" height="18" fill="white"/>
</clipPath>
</defs>
</svg>
